# xmcd CD database file generated by Grip 3.3.1
# 
# Track frame offsets:
#       150
#       31172
#       54560
#       83792
#       109392
#       137710
#       170592
#       193792
# 
# Disc length: 2797 seconds
# 
# Revision: 4
# Processed by: cddbd v1.5.2PL0 Copyright (c) Steve Scherf et al.
# Submitted via: Grip 3.3.1
# 
DISCID=6b0aeb08
DTITLE=The Mahavishnu Orchestra with John Mclaughlin - The Inner Mountin
DTITLE=g Flame
DYEAR=1971
DGENRE=Jazz
TTITLE0=Meeting of the Spirits
TTITLE1=Dawn
TTITLE2=Noonward Race
TTITLE3=A Lotus on Irish Streams
TTITLE4=Vital Transformation
TTITLE5=The Dance of Maya
TTITLE6=You Know, You Know
TTITLE7=Awakening
EXTD=YEAR: 1998
EXTT0=
EXTT1=
EXTT2=
EXTT3=
EXTT4=
EXTT5=
EXTT6=
EXTT7=
PLAYORDER=
